<svg aria-hidden="true" style="position: absolute; width: 0; height: 0; overflow: hidden;" version="1.1" xmlns="http://www.w3.org/2000/svg" xmlns:xlink="http://www.w3.org/1999/xlink">
<defs>
<symbol id="email" viewBox="0 0 32 32">
<title>email</title>
<path d="M29.188 3.813h-26.375c-1.549 0-2.813 1.262-2.813 2.813v18.75c0 1.545 1.258 2.813 2.813 2.813h26.375c1.545 0 2.813-1.258 2.813-2.813v-18.75c0-1.545-1.258-2.813-2.813-2.813zM28.799 5.688l-12.739 12.74-12.85-12.74h25.589zM1.875 24.987v-17.982l9.030 8.953-9.030 9.030zM3.201 26.313l9.036-9.036 3.166 3.139c0.367 0.363 0.958 0.362 1.323-0.003l3.087-3.087 8.987 8.987h-25.598zM30.125 24.987l-8.987-8.987 8.987-8.987v17.973z"></path>
</symbol>
<symbol id="power" viewBox="0 0 32 32">
<title>power</title>
<path d="M1.658 18.976c-0.47-5.062 1.692-9.648 5.278-12.561 1.398-1.137 3.488-0.163 3.488 1.633 0 0.66-0.314 1.267-0.823 1.679-2.541 2.071-4.069 5.337-3.697 8.942 0.483 4.697 4.246 8.498 8.936 9.021 6.121 0.686 11.32-4.109 11.32-10.092 0-3.175-1.47-6.016-3.762-7.878-0.509-0.412-0.817-1.019-0.817-1.672 0-1.777 2.058-2.783 3.442-1.672 3.279 2.646 5.382 6.689 5.382 11.222 0 8.289-7.042 14.972-15.461 14.364-6.963-0.49-12.64-6.036-13.286-12.986zM15.996 0c-1.176 0-2.123 0.954-2.123 2.123v9.779c0 1.176 0.954 2.123 2.123 2.123s2.123-0.954 2.123-2.123v-9.779c0-1.169-0.947-2.123-2.123-2.123z"></path>
</symbol>
<symbol id="settings" viewBox="0 0 32 32">
<title>settings</title>
<path d="M31.284 13.276l-3.743-0.908c-0.237-0.74-0.503-1.37-0.819-1.97l0.032 0.066 1.92-3.2c0.084-0.138 0.134-0.304 0.134-0.482 0-0.259-0.105-0.493-0.275-0.663l-2.652-2.652c-0.17-0.17-0.404-0.275-0.663-0.275-0.178 0-0.345 0.050-0.486 0.136l0.004-0.002-3.2 1.92c-0.534-0.284-1.164-0.551-1.818-0.763l-0.086-0.024-0.908-3.743c-0.103-0.414-0.472-0.716-0.911-0.716h-3.75c-0.439 0-0.808 0.302-0.91 0.71l-0.001 0.006-0.908 3.743c-0.74 0.237-1.37 0.503-1.97 0.819l0.066-0.032-3.2-1.92c-0.138-0.084-0.304-0.134-0.482-0.134-0.259 0-0.493 0.105-0.663 0.275l-2.652 2.652c-0.17 0.17-0.275 0.404-0.275 0.663 0 0.178 0.050 0.345 0.136 0.486l-0.002-0.004 1.92 3.2c-0.284 0.535-0.552 1.166-0.764 1.822l-0.024 0.086-3.623 0.906c-0.411 0.105-0.71 0.473-0.71 0.91v0 3.75c0 0.437 0.299 0.804 0.704 0.908l0.006 0.001 3.623 0.906c0.237 0.742 0.504 1.373 0.82 1.974l-0.032-0.066-1.92 3.2c-0.084 0.138-0.134 0.304-0.134 0.482 0 0.259 0.105 0.493 0.275 0.663l2.652 2.652c0.17 0.17 0.404 0.275 0.663 0.275 0.178 0 0.345-0.050 0.486-0.136l-0.004 0.002 3.2-1.92c0.535 0.284 1.166 0.552 1.822 0.764l0.086 0.024 0.906 3.623c0.105 0.411 0.473 0.71 0.91 0.71h3.75c0.437 0 0.804-0.299 0.908-0.704l0.001-0.006 0.906-3.623c0.742-0.237 1.373-0.504 1.974-0.82l-0.066 0.032 3.2 1.92c0.138 0.084 0.304 0.134 0.482 0.134 0.259 0 0.493-0.105 0.663-0.275l2.652-2.652c0.17-0.17 0.275-0.404 0.275-0.663 0-0.178-0.050-0.345-0.136-0.486l0.002 0.004-1.92-3.2c0.284-0.534 0.55-1.164 0.763-1.818l0.024-0.086 3.743-0.908c0.414-0.103 0.716-0.472 0.716-0.911v0-3.75c0-0.439-0.302-0.808-0.71-0.91l-0.006-0.001zM30.125 17.2l-3.553 0.862c-0.334 0.083-0.594 0.337-0.683 0.662l-0.002 0.007c-0.234 0.875-0.579 1.71-1.026 2.482-0.079 0.135-0.126 0.297-0.126 0.47 0 0.178 0.050 0.345 0.136 0.486l-0.002-0.004 1.82 3.033-1.616 1.616-3.033-1.82c-0.138-0.084-0.304-0.134-0.482-0.134-0.173 0-0.335 0.047-0.474 0.128l0.004-0.002c-0.772 0.447-1.607 0.792-2.482 1.026-0.329 0.090-0.582 0.347-0.666 0.672l-0.001 0.006-0.858 3.434h-2.286l-0.858-3.434c-0.085-0.331-0.338-0.588-0.661-0.677l-0.007-0.002c-0.875-0.234-1.71-0.579-2.482-1.026-0.135-0.079-0.297-0.126-0.469-0.126-0.178 0-0.345 0.050-0.487 0.136l0.004-0.002-3.033 1.82-1.616-1.616 1.82-3.033c0.084-0.138 0.134-0.304 0.134-0.482 0-0.173-0.047-0.335-0.128-0.474l0.002 0.004c-0.447-0.772-0.792-1.607-1.026-2.482-0.090-0.329-0.347-0.582-0.672-0.666l-0.006-0.001-3.434-0.859v-2.286l3.434-0.858c0.331-0.085 0.588-0.338 0.677-0.661l0.002-0.007c0.234-0.875 0.579-1.71 1.026-2.482 0.079-0.135 0.126-0.297 0.126-0.469 0-0.178-0.050-0.345-0.136-0.487l0.002 0.004-1.82-3.033 1.616-1.616 3.033 1.82c0.138 0.084 0.304 0.134 0.482 0.134 0.173 0 0.335-0.047 0.474-0.128l-0.004 0.002c0.772-0.447 1.607-0.792 2.482-1.026 0.331-0.091 0.586-0.35 0.667-0.678l0.001-0.006 0.862-3.553h2.276l0.862 3.553c0.083 0.334 0.337 0.594 0.662 0.683l0.007 0.002c0.874 0.234 1.709 0.579 2.482 1.026 0.135 0.079 0.297 0.126 0.469 0.126 0.178 0 0.345-0.050 0.486-0.136l-0.004 0.002 3.033-1.82 1.616 1.616-1.82 3.033c-0.084 0.138-0.134 0.304-0.134 0.482 0 0.173 0.047 0.335 0.128 0.474l-0.002-0.004c0.447 0.772 0.792 1.607 1.026 2.482 0.091 0.331 0.35 0.586 0.678 0.667l0.006 0.001 3.553 0.862v2.276z"></path>
<path d="M15.938 9.5c-3.619 0-6.563 2.944-6.563 6.563s2.944 6.563 6.563 6.563 6.563-2.944 6.563-6.563-2.944-6.563-6.563-6.563zM15.938 20.75c-2.585 0-4.688-2.103-4.688-4.688s2.103-4.688 4.688-4.688 4.688 2.103 4.688 4.688-2.103 4.688-4.688 4.688z"></path>
</symbol>
<symbol id="user" viewBox="0 0 32 32">
<title>user</title>
<path d="M16 16c-4.411 0-8-3.589-8-8s3.589-8 8-8 8 3.589 8 8-3.589 8-8 8zM16 2c-3.309 0-6 2.691-6 6s2.691 6 6 6 6-2.691 6-6-2.691-6-6-6zM29 32h-26c-0.553 0-1-0.447-1-1v-6.884c0-1.033 0.528-2.004 1.378-2.535 7.51-4.685 17.741-4.684 25.243-0.001 0.851 0.532 1.379 1.503 1.379 2.536v6.884c0 0.553-0.447 1-1 1zM4 30h24v-5.884c0-0.349-0.168-0.671-0.439-0.84-6.866-4.286-16.252-4.289-23.124 0.001-0.27 0.168-0.438 0.49-0.438 0.839z"></path>
</symbol>
</defs>
</svg>
